<svg height="18.849" viewBox="0 0 20.294 18.849" width="20.294" xmlns="http://www.w3.org/2000/svg"><path d="m20.2218773 6.90293947h-3.2604582l-3.5253511-6.50734685c-.1914265-.35334875-.6560237-.49659824-1.040946-.31992387-.3838877.17762937-.5390983.60737784-.3466372.96072659l3.1776793 5.86654413h-9.45543239l3.17871397-5.86654413c.19142646-.35430374.03621581-.78405221-.34663711-.96072659-.38285292-.17667437-.84951958-.03342488-1.04094604.31992387l-3.52535107 6.50734685h-3.26045824c-.42838138 0-.77605322.32087886-.77605322.71624745 0 .3953686.34767184.71624745.77605322.71624745h.1624538l.88470067 2.85639483c-.19349594.1308345-.32697709.3313838-.32697709.568223 0 .3781786.31973392.6780476.72121212.7057425l1.7135255 5.5342053h13.13806358l1.7135255-5.5342053c.4014782-.0267399.7222468-.3285188.7222468-.7057425 0-.2377942-.1334811-.4383434-.326977-.569178l.8836659-2.85639482h.1624538c.4283814 0 .7760532-.32087886.7760532-.71624745 0-.3953686-.3497413-.71529246-.7781227-.71529246zm-4.326238 9.66552063h-10.79541757l-1.26651885-4.0912055h13.32845532zm1.7104213-5.5246554h-14.21626016l-.83813747-2.70837033h15.89253513z" fill="#63d1bb" fill-rule="evenodd" transform=""/></svg>
